<svg width="156" height="36" viewBox="0 0 156 36" fill="none" xmlns="http://www.w3.org/2000/svg">
<mask id="path-1-inside-1_706_17917" fill="white">
<path d="M9.56494 28.2048C7.94641 28.2048 6.49363 27.8635 5.2066 27.181C3.91958 26.4985 2.91531 25.5527 2.19379 24.3437C1.47228 23.1152 1.11152 21.7306 1.11152 20.1901C1.11152 18.6496 1.47228 17.2748 2.19379 16.0658C2.91531 14.8567 3.90983 13.911 5.17735 13.2285C6.46438 12.5459 7.92691 12.2047 9.56494 12.2047C11.1055 12.2047 12.451 12.5167 13.6015 13.1407C14.7715 13.7647 15.6491 14.6617 16.2341 15.8318L13.426 17.4698C12.9775 16.7483 12.412 16.212 11.7295 15.861C11.0665 15.4905 10.3352 15.3052 9.53569 15.3052C8.17066 15.3052 7.03964 15.7538 6.14262 16.6508C5.24561 17.5283 4.7971 18.7081 4.7971 20.1901C4.7971 21.6721 5.23586 22.8616 6.11337 23.7587C7.01039 24.6362 8.15116 25.0749 9.53569 25.0749C10.3352 25.0749 11.0665 24.8994 11.7295 24.5484C12.412 24.1779 12.9775 23.6319 13.426 22.9104L16.2341 24.5484C15.6296 25.7185 14.7423 26.6252 13.5723 27.2687C12.4218 27.8927 11.086 28.2048 9.56494 28.2048ZM26.5959 25.1042C28.2924 25.1042 29.7062 24.5387 30.8372 23.4077L32.7677 25.66C32.0852 26.4985 31.2077 27.1322 30.1352 27.5612C29.0627 27.9902 27.8536 28.2048 26.5081 28.2048C24.7921 28.2048 23.2808 27.8635 21.9743 27.181C20.6678 26.4985 19.6537 25.5527 18.9322 24.3437C18.2302 23.1152 17.8792 21.7306 17.8792 20.1901C17.8792 18.6691 18.2205 17.304 18.903 16.095C19.605 14.8665 20.5605 13.911 21.7695 13.2285C22.998 12.5459 24.3826 12.2047 25.9231 12.2047C27.3856 12.2047 28.7117 12.5264 29.9012 13.17C31.1102 13.794 32.0657 14.7007 32.7677 15.8903C33.4698 17.0603 33.8208 18.4351 33.8208 20.0146L21.8573 22.3546C22.2278 23.2517 22.8225 23.9342 23.6416 24.4022C24.4606 24.8702 25.4453 25.1042 26.5959 25.1042ZM25.9231 15.1297C24.5776 15.1297 23.4856 15.5685 22.647 16.446C21.828 17.3235 21.4185 18.5033 21.4185 19.9853V20.0146L30.2522 18.3181C29.9987 17.3625 29.4819 16.5923 28.7019 16.0073C27.9414 15.4222 27.0151 15.1297 25.9231 15.1297ZM42.4817 28.2048C40.8631 28.2048 39.5956 27.766 38.6791 26.8885C37.7821 25.9915 37.3336 24.7337 37.3336 23.1152V6.29606H40.9899V22.8519C40.9899 24.4119 41.7212 25.1919 43.1837 25.1919C43.6712 25.1919 44.11 25.0944 44.5 24.8994L44.6755 27.8245C43.993 28.078 43.2617 28.2048 42.4817 28.2048ZM54.3039 25.1042C56.0005 25.1042 57.4143 24.5387 58.5453 23.4077L60.4758 25.66C59.7933 26.4985 58.9158 27.1322 57.8433 27.5612C56.7707 27.9902 55.5617 28.2048 54.2162 28.2048C52.5002 28.2048 50.9889 27.8635 49.6824 27.181C48.3758 26.4985 47.3618 25.5527 46.6403 24.3437C45.9383 23.1152 45.5873 21.7306 45.5873 20.1901C45.5873 18.6691 45.9285 17.304 46.611 16.095C47.3131 14.8665 48.2686 13.911 49.4776 13.2285C50.7061 12.5459 52.0907 12.2047 53.6312 12.2047C55.0937 12.2047 56.4197 12.5264 57.6093 13.17C58.8183 13.794 59.7738 14.7007 60.4758 15.8903C61.1778 17.0603 61.5288 18.4351 61.5288 20.0146L49.5654 22.3546C49.9359 23.2517 50.5306 23.9342 51.3496 24.4022C52.1687 24.8702 53.1534 25.1042 54.3039 25.1042ZM53.6312 15.1297C52.2857 15.1297 51.1936 15.5685 50.3551 16.446C49.5361 17.3235 49.1266 18.5033 49.1266 19.9853V20.0146L57.9603 18.3181C57.7068 17.3625 57.19 16.5923 56.41 16.0073C55.6495 15.4222 54.7232 15.1297 53.6312 15.1297ZM73.6998 12.2047C75.2209 12.2047 76.5761 12.5362 77.7657 13.1992C78.9747 13.8622 79.9205 14.7982 80.603 16.0073C81.2855 17.2163 81.6267 18.6106 81.6267 20.1901C81.6267 21.7696 81.2855 23.1737 80.603 24.4022C79.9205 25.6112 78.9747 26.5472 77.7657 27.2102C76.5761 27.8732 75.2209 28.2048 73.6998 28.2048C72.6273 28.2048 71.6425 28.0195 70.7455 27.649C69.868 27.2785 69.127 26.7227 68.5225 25.9817V28H65.0417V6.29606H68.698V14.2815C69.322 13.599 70.0533 13.0822 70.8918 12.7312C71.7498 12.3802 72.6858 12.2047 73.6998 12.2047ZM73.2903 25.0749C74.6359 25.0749 75.7376 24.6264 76.5956 23.7294C77.4732 22.8324 77.9119 21.6526 77.9119 20.1901C77.9119 18.7276 77.4732 17.5478 76.5956 16.6508C75.7376 15.7538 74.6359 15.3052 73.2903 15.3052C72.4128 15.3052 71.623 15.51 70.921 15.9195C70.219 16.3095 69.6633 16.875 69.2537 17.616C68.8442 18.3571 68.6395 19.2151 68.6395 20.1901C68.6395 21.1651 68.8442 22.0231 69.2537 22.7641C69.6633 23.5052 70.219 24.0804 70.921 24.4899C71.623 24.8799 72.4128 25.0749 73.2903 25.0749ZM88.5751 14.6617C89.6281 13.0237 91.4807 12.2047 94.1327 12.2047V15.6855C93.8207 15.627 93.538 15.5977 93.2845 15.5977C91.8609 15.5977 90.7494 16.017 89.9499 16.8555C89.1504 17.6745 88.7506 18.8641 88.7506 20.4241V28H85.0943V12.3802H88.5751V14.6617ZM97.2344 12.3802H100.891V28H97.2344V12.3802ZM99.0772 9.80613C98.4142 9.80613 97.8585 9.60138 97.4099 9.19187C96.9614 8.76286 96.7372 8.23635 96.7372 7.61234C96.7372 6.98833 96.9614 6.47157 97.4099 6.06206C97.8585 5.63305 98.4142 5.41854 99.0772 5.41854C99.7402 5.41854 100.296 5.6233 100.745 6.03281C101.193 6.42281 101.417 6.92007 101.417 7.52459C101.417 8.1681 101.193 8.71411 100.745 9.16262C100.316 9.59163 99.7597 9.80613 99.0772 9.80613ZM121.193 12.3802V25.6307C121.193 31.1298 118.384 33.8794 112.768 33.8794C111.267 33.8794 109.843 33.6844 108.498 33.2944C107.152 32.9238 106.041 32.3778 105.163 31.6563L106.801 28.9068C107.484 29.4723 108.342 29.9208 109.375 30.2523C110.428 30.6033 111.491 30.7788 112.564 30.7788C114.28 30.7788 115.537 30.3888 116.337 29.6088C117.136 28.8288 117.536 27.6392 117.536 26.0402V25.2212C116.912 25.9037 116.152 26.4205 115.255 26.7715C114.358 27.1225 113.373 27.298 112.3 27.298C110.818 27.298 109.473 26.986 108.264 26.362C107.074 25.7185 106.128 24.8214 105.426 23.6709C104.744 22.5204 104.403 21.2041 104.403 19.7221C104.403 18.2401 104.744 16.9335 105.426 15.8025C106.128 14.652 107.074 13.7647 108.264 13.1407C109.473 12.5167 110.818 12.2047 112.3 12.2047C113.431 12.2047 114.455 12.3899 115.372 12.7604C116.308 13.1309 117.088 13.6965 117.712 14.457V12.3802H121.193ZM112.856 24.1974C114.241 24.1974 115.372 23.7879 116.249 22.9689C117.146 22.1304 117.595 21.0481 117.595 19.7221C117.595 18.4156 117.146 17.3528 116.249 16.5338C115.372 15.7148 114.241 15.3052 112.856 15.3052C111.452 15.3052 110.302 15.7148 109.405 16.5338C108.527 17.3528 108.088 18.4156 108.088 19.7221C108.088 21.0481 108.527 22.1304 109.405 22.9689C110.302 23.7879 111.452 24.1974 112.856 24.1974ZM134.862 12.2047C136.832 12.2047 138.411 12.7799 139.601 13.9305C140.79 15.081 141.385 16.7873 141.385 19.0493V28H137.729V19.5173C137.729 18.1523 137.407 17.1285 136.764 16.446C136.12 15.744 135.204 15.393 134.014 15.393C132.669 15.393 131.606 15.8025 130.826 16.6215C130.046 17.421 129.656 18.5813 129.656 20.1023V28H125.999V6.29606H129.656V14.1937C130.26 13.5502 131.001 13.0627 131.879 12.7312C132.776 12.3802 133.77 12.2047 134.862 12.2047ZM154.799 27.1517C154.37 27.5027 153.843 27.766 153.219 27.9415C152.615 28.117 151.971 28.2048 151.289 28.2048C149.573 28.2048 148.247 27.7562 147.311 26.8592C146.375 25.9622 145.907 24.6557 145.907 22.9396V8.92862H149.563V12.4972H153.746V15.4222H149.563V22.8519C149.563 23.6124 149.748 24.1974 150.119 24.6069C150.509 24.9969 151.045 25.1919 151.727 25.1919C152.546 25.1919 153.229 24.9774 153.775 24.5484L154.799 27.1517Z"/>
</mask>
<path d="M9.56494 28.2048C7.94641 28.2048 6.49363 27.8635 5.2066 27.181C3.91958 26.4985 2.91531 25.5527 2.19379 24.3437C1.47228 23.1152 1.11152 21.7306 1.11152 20.1901C1.11152 18.6496 1.47228 17.2748 2.19379 16.0658C2.91531 14.8567 3.90983 13.911 5.17735 13.2285C6.46438 12.5459 7.92691 12.2047 9.56494 12.2047C11.1055 12.2047 12.451 12.5167 13.6015 13.1407C14.7715 13.7647 15.6491 14.6617 16.2341 15.8318L13.426 17.4698C12.9775 16.7483 12.412 16.212 11.7295 15.861C11.0665 15.4905 10.3352 15.3052 9.53569 15.3052C8.17066 15.3052 7.03964 15.7538 6.14262 16.6508C5.24561 17.5283 4.7971 18.7081 4.7971 20.1901C4.7971 21.6721 5.23586 22.8616 6.11337 23.7587C7.01039 24.6362 8.15116 25.0749 9.53569 25.0749C10.3352 25.0749 11.0665 24.8994 11.7295 24.5484C12.412 24.1779 12.9775 23.6319 13.426 22.9104L16.2341 24.5484C15.6296 25.7185 14.7423 26.6252 13.5723 27.2687C12.4218 27.8927 11.086 28.2048 9.56494 28.2048ZM26.5959 25.1042C28.2924 25.1042 29.7062 24.5387 30.8372 23.4077L32.7677 25.66C32.0852 26.4985 31.2077 27.1322 30.1352 27.5612C29.0627 27.9902 27.8536 28.2048 26.5081 28.2048C24.7921 28.2048 23.2808 27.8635 21.9743 27.181C20.6678 26.4985 19.6537 25.5527 18.9322 24.3437C18.2302 23.1152 17.8792 21.7306 17.8792 20.1901C17.8792 18.6691 18.2205 17.304 18.903 16.095C19.605 14.8665 20.5605 13.911 21.7695 13.2285C22.998 12.5459 24.3826 12.2047 25.9231 12.2047C27.3856 12.2047 28.7117 12.5264 29.9012 13.17C31.1102 13.794 32.0657 14.7007 32.7677 15.8903C33.4698 17.0603 33.8208 18.4351 33.8208 20.0146L21.8573 22.3546C22.2278 23.2517 22.8225 23.9342 23.6416 24.4022C24.4606 24.8702 25.4453 25.1042 26.5959 25.1042ZM25.9231 15.1297C24.5776 15.1297 23.4856 15.5685 22.647 16.446C21.828 17.3235 21.4185 18.5033 21.4185 19.9853V20.0146L30.2522 18.3181C29.9987 17.3625 29.4819 16.5923 28.7019 16.0073C27.9414 15.4222 27.0151 15.1297 25.9231 15.1297ZM42.4817 28.2048C40.8631 28.2048 39.5956 27.766 38.6791 26.8885C37.7821 25.9915 37.3336 24.7337 37.3336 23.1152V6.29606H40.9899V22.8519C40.9899 24.4119 41.7212 25.1919 43.1837 25.1919C43.6712 25.1919 44.11 25.0944 44.5 24.8994L44.6755 27.8245C43.993 28.078 43.2617 28.2048 42.4817 28.2048ZM54.3039 25.1042C56.0005 25.1042 57.4143 24.5387 58.5453 23.4077L60.4758 25.66C59.7933 26.4985 58.9158 27.1322 57.8433 27.5612C56.7707 27.9902 55.5617 28.2048 54.2162 28.2048C52.5002 28.2048 50.9889 27.8635 49.6824 27.181C48.3758 26.4985 47.3618 25.5527 46.6403 24.3437C45.9383 23.1152 45.5873 21.7306 45.5873 20.1901C45.5873 18.6691 45.9285 17.304 46.611 16.095C47.3131 14.8665 48.2686 13.911 49.4776 13.2285C50.7061 12.5459 52.0907 12.2047 53.6312 12.2047C55.0937 12.2047 56.4197 12.5264 57.6093 13.17C58.8183 13.794 59.7738 14.7007 60.4758 15.8903C61.1778 17.0603 61.5288 18.4351 61.5288 20.0146L49.5654 22.3546C49.9359 23.2517 50.5306 23.9342 51.3496 24.4022C52.1687 24.8702 53.1534 25.1042 54.3039 25.1042ZM53.6312 15.1297C52.2857 15.1297 51.1936 15.5685 50.3551 16.446C49.5361 17.3235 49.1266 18.5033 49.1266 19.9853V20.0146L57.9603 18.3181C57.7068 17.3625 57.19 16.5923 56.41 16.0073C55.6495 15.4222 54.7232 15.1297 53.6312 15.1297ZM73.6998 12.2047C75.2209 12.2047 76.5761 12.5362 77.7657 13.1992C78.9747 13.8622 79.9205 14.7982 80.603 16.0073C81.2855 17.2163 81.6267 18.6106 81.6267 20.1901C81.6267 21.7696 81.2855 23.1737 80.603 24.4022C79.9205 25.6112 78.9747 26.5472 77.7657 27.2102C76.5761 27.8732 75.2209 28.2048 73.6998 28.2048C72.6273 28.2048 71.6425 28.0195 70.7455 27.649C69.868 27.2785 69.127 26.7227 68.5225 25.9817V28H65.0417V6.29606H68.698V14.2815C69.322 13.599 70.0533 13.0822 70.8918 12.7312C71.7498 12.3802 72.6858 12.2047 73.6998 12.2047ZM73.2903 25.0749C74.6359 25.0749 75.7376 24.6264 76.5956 23.7294C77.4732 22.8324 77.9119 21.6526 77.9119 20.1901C77.9119 18.7276 77.4732 17.5478 76.5956 16.6508C75.7376 15.7538 74.6359 15.3052 73.2903 15.3052C72.4128 15.3052 71.623 15.51 70.921 15.9195C70.219 16.3095 69.6633 16.875 69.2537 17.616C68.8442 18.3571 68.6395 19.2151 68.6395 20.1901C68.6395 21.1651 68.8442 22.0231 69.2537 22.7641C69.6633 23.5052 70.219 24.0804 70.921 24.4899C71.623 24.8799 72.4128 25.0749 73.2903 25.0749ZM88.5751 14.6617C89.6281 13.0237 91.4807 12.2047 94.1327 12.2047V15.6855C93.8207 15.627 93.538 15.5977 93.2845 15.5977C91.8609 15.5977 90.7494 16.017 89.9499 16.8555C89.1504 17.6745 88.7506 18.8641 88.7506 20.4241V28H85.0943V12.3802H88.5751V14.6617ZM97.2344 12.3802H100.891V28H97.2344V12.3802ZM99.0772 9.80613C98.4142 9.80613 97.8585 9.60138 97.4099 9.19187C96.9614 8.76286 96.7372 8.23635 96.7372 7.61234C96.7372 6.98833 96.9614 6.47157 97.4099 6.06206C97.8585 5.63305 98.4142 5.41854 99.0772 5.41854C99.7402 5.41854 100.296 5.6233 100.745 6.03281C101.193 6.42281 101.417 6.92007 101.417 7.52459C101.417 8.1681 101.193 8.71411 100.745 9.16262C100.316 9.59163 99.7597 9.80613 99.0772 9.80613ZM121.193 12.3802V25.6307C121.193 31.1298 118.384 33.8794 112.768 33.8794C111.267 33.8794 109.843 33.6844 108.498 33.2944C107.152 32.9238 106.041 32.3778 105.163 31.6563L106.801 28.9068C107.484 29.4723 108.342 29.9208 109.375 30.2523C110.428 30.6033 111.491 30.7788 112.564 30.7788C114.28 30.7788 115.537 30.3888 116.337 29.6088C117.136 28.8288 117.536 27.6392 117.536 26.0402V25.2212C116.912 25.9037 116.152 26.4205 115.255 26.7715C114.358 27.1225 113.373 27.298 112.3 27.298C110.818 27.298 109.473 26.986 108.264 26.362C107.074 25.7185 106.128 24.8214 105.426 23.6709C104.744 22.5204 104.403 21.2041 104.403 19.7221C104.403 18.2401 104.744 16.9335 105.426 15.8025C106.128 14.652 107.074 13.7647 108.264 13.1407C109.473 12.5167 110.818 12.2047 112.3 12.2047C113.431 12.2047 114.455 12.3899 115.372 12.7604C116.308 13.1309 117.088 13.6965 117.712 14.457V12.3802H121.193ZM112.856 24.1974C114.241 24.1974 115.372 23.7879 116.249 22.9689C117.146 22.1304 117.595 21.0481 117.595 19.7221C117.595 18.4156 117.146 17.3528 116.249 16.5338C115.372 15.7148 114.241 15.3052 112.856 15.3052C111.452 15.3052 110.302 15.7148 109.405 16.5338C108.527 17.3528 108.088 18.4156 108.088 19.7221C108.088 21.0481 108.527 22.1304 109.405 22.9689C110.302 23.7879 111.452 24.1974 112.856 24.1974ZM134.862 12.2047C136.832 12.2047 138.411 12.7799 139.601 13.9305C140.79 15.081 141.385 16.7873 141.385 19.0493V28H137.729V19.5173C137.729 18.1523 137.407 17.1285 136.764 16.446C136.12 15.744 135.204 15.393 134.014 15.393C132.669 15.393 131.606 15.8025 130.826 16.6215C130.046 17.421 129.656 18.5813 129.656 20.1023V28H125.999V6.29606H129.656V14.1937C130.26 13.5502 131.001 13.0627 131.879 12.7312C132.776 12.3802 133.77 12.2047 134.862 12.2047ZM154.799 27.1517C154.37 27.5027 153.843 27.766 153.219 27.9415C152.615 28.117 151.971 28.2048 151.289 28.2048C149.573 28.2048 148.247 27.7562 147.311 26.8592C146.375 25.9622 145.907 24.6557 145.907 22.9396V8.92862H149.563V12.4972H153.746V15.4222H149.563V22.8519C149.563 23.6124 149.748 24.1974 150.119 24.6069C150.509 24.9969 151.045 25.1919 151.727 25.1919C152.546 25.1919 153.229 24.9774 153.775 24.5484L154.799 27.1517Z" fill="url(#paint0_linear_706_17917)"/>
<path d="M5.2066 27.181L4.69979 28.1367L4.69979 28.1367L5.2066 27.181ZM2.19379 24.3437L1.26096 24.8915L1.26485 24.898L2.19379 24.3437ZM5.17735 13.2285L4.67052 12.2727L4.66448 12.276L5.17735 13.2285ZM13.6015 13.1407L13.0858 14.0916L13.0924 14.0952L13.6015 13.1407ZM16.2341 15.8318L16.7792 16.7662L17.6552 16.2551L17.2017 15.348L16.2341 15.8318ZM13.426 17.4698L12.5073 18.0409L13.0626 18.9342L13.9711 18.4042L13.426 17.4698ZM11.7295 15.861L11.2018 16.8053L11.2181 16.8145L11.2347 16.823L11.7295 15.861ZM6.14262 16.6508L6.89916 17.4241L6.90756 17.4157L6.14262 16.6508ZM6.11337 23.7587L5.34008 24.5152L5.34839 24.5236L5.35689 24.532L6.11337 23.7587ZM11.7295 24.5484L12.2357 25.5046L12.2456 25.4992L11.7295 24.5484ZM13.426 22.9104L13.9711 21.976L13.0626 21.446L12.5073 22.3393L13.426 22.9104ZM16.2341 24.5484L17.1952 25.045L17.6669 24.1319L16.7792 23.614L16.2341 24.5484ZM13.5723 27.2687L14.088 28.2197L14.0936 28.2166L13.5723 27.2687ZM9.56494 27.123C8.10316 27.123 6.82762 26.8161 5.71342 26.2253L4.69979 28.1367C6.15964 28.9109 7.78966 29.2865 9.56494 29.2865V27.123ZM5.71342 26.2253C4.59479 25.6321 3.73926 24.8224 3.12274 23.7893L1.26485 24.898C2.09136 26.283 3.24436 27.3649 4.69979 28.1367L5.71342 26.2253ZM3.1266 23.7958C2.51052 22.7468 2.19331 21.5542 2.19331 20.1901H0.0297364C0.0297364 21.9071 0.434042 23.4835 1.26099 24.8915L3.1266 23.7958ZM2.19331 20.1901C2.19331 18.8258 2.51054 17.646 3.12274 16.6201L1.26485 15.5114C0.434016 16.9036 0.0297364 18.4733 0.0297364 20.1901H2.19331ZM3.12274 16.6201C3.74174 15.5829 4.59075 14.773 5.69023 14.1809L4.66448 12.276C3.22891 13.049 2.08888 14.1306 1.26485 15.5114L3.12274 16.6201ZM5.68417 14.1842C6.79653 13.5943 8.08133 13.2865 9.56494 13.2865V11.1229C7.77249 11.1229 6.13223 11.4976 4.67053 12.2727L5.68417 14.1842ZM9.56494 13.2865C10.9573 13.2865 12.1195 13.5675 13.0858 14.0916L14.1173 12.1898C12.7825 11.4658 11.2537 11.1229 9.56494 11.1229V13.2865ZM13.0924 14.0952C14.0674 14.6152 14.7833 15.3491 15.2665 16.3155L17.2017 15.348C16.5149 13.9744 15.4757 12.9142 14.1106 12.1862L13.0924 14.0952ZM15.689 14.8973L12.8809 16.5354L13.9711 18.4042L16.7792 16.7662L15.689 14.8973ZM14.3448 16.8987C13.8043 16.0292 13.0991 15.3489 12.2242 14.899L11.2347 16.823C11.7249 17.0751 12.1508 17.4674 12.5073 18.0409L14.3448 16.8987ZM12.2572 14.9167C11.4243 14.4512 10.5099 14.2235 9.53569 14.2235V16.387C10.1605 16.387 10.7086 16.5298 11.2018 16.8053L12.2572 14.9167ZM9.53569 14.2235C7.90787 14.2235 6.49402 14.7695 5.37769 15.8858L6.90756 17.4157C7.58527 16.738 8.43346 16.387 9.53569 16.387V14.2235ZM5.38614 15.8775C4.24367 16.9951 3.71531 18.4739 3.71531 20.1901H5.87888C5.87888 18.9422 6.24754 18.0615 6.89911 17.4241L5.38614 15.8775ZM3.71531 20.1901C3.71531 21.9 4.22948 23.3799 5.34008 24.5152L6.88667 23.0022C6.24223 22.3434 5.87888 21.4442 5.87888 20.1901H3.71531ZM5.35689 24.532C6.47781 25.6285 7.90034 26.1567 9.53569 26.1567V23.9932C8.40199 23.9932 7.54298 23.6438 6.86986 22.9854L5.35689 24.532ZM9.53569 26.1567C10.4997 26.1567 11.4065 25.9435 12.2356 25.5045L11.2233 23.5924C10.7265 23.8554 10.1707 23.9932 9.53569 23.9932V26.1567ZM12.2456 25.4992C13.1082 25.0309 13.8068 24.347 14.3448 23.4815L12.5073 22.3393C12.1482 22.9169 11.7158 23.3249 11.2134 23.5977L12.2456 25.4992ZM12.8809 23.8448L15.689 25.4829L16.7792 23.614L13.9711 21.976L12.8809 23.8448ZM15.273 24.0519C14.7685 25.0283 14.0356 25.7793 13.0509 26.3209L14.0936 28.2166C15.449 27.4712 16.4906 26.4086 17.1952 25.045L15.273 24.0519ZM13.0565 26.3178C12.0883 26.843 10.9352 27.123 9.56494 27.123V29.2865C11.2367 29.2865 12.7552 28.9425 14.088 28.2197L13.0565 26.3178ZM30.8372 23.4077L31.6586 22.7036L30.8983 21.8167L30.0723 22.6427L30.8372 23.4077ZM32.7677 25.66L33.6067 26.3429L34.1772 25.642L33.5891 24.9559L32.7677 25.66ZM30.1352 27.5612L29.7334 26.5568L30.1352 27.5612ZM21.9743 27.181L21.4734 28.1398L21.4734 28.1398L21.9743 27.181ZM18.9322 24.3437L17.993 24.8804L17.998 24.8893L18.0033 24.898L18.9322 24.3437ZM18.903 16.095L17.9637 15.5583L17.9609 15.5632L18.903 16.095ZM21.7695 13.2285L21.2441 12.2828L21.2377 12.2864L21.7695 13.2285ZM29.9012 13.17L29.3865 14.1214L29.3957 14.1264L29.405 14.1312L29.9012 13.17ZM32.7677 15.8903L31.8361 16.4401L31.8401 16.4468L32.7677 15.8903ZM33.8208 20.0146L34.0284 21.0763L34.9026 20.9053V20.0146H33.8208ZM21.8573 22.3546L21.6496 21.293L20.3531 21.5466L20.8574 22.7676L21.8573 22.3546ZM23.6416 24.4022L24.1783 23.4629L24.1783 23.4629L23.6416 24.4022ZM22.647 16.446L21.8649 15.6986L21.8562 15.7079L22.647 16.446ZM21.4185 20.0146H20.3367V21.3239L21.6225 21.077L21.4185 20.0146ZM30.2522 18.3181L30.4562 19.3804L31.5952 19.1617L31.2978 18.0406L30.2522 18.3181ZM28.7019 16.0073L28.0423 16.8648L28.0528 16.8727L28.7019 16.0073ZM26.5959 26.186C28.56 26.186 30.255 25.5198 31.6021 24.1726L30.0723 22.6427C29.1574 23.5576 28.0248 24.0224 26.5959 24.0224V26.186ZM30.0159 24.1117L31.9464 26.364L33.5891 24.9559L31.6586 22.7036L30.0159 24.1117ZM31.9288 24.9771C31.3702 25.6632 30.6473 26.1913 29.7334 26.5568L30.537 28.5657C31.7681 28.0732 32.8002 27.3337 33.6067 26.3429L31.9288 24.9771ZM29.7334 26.5568C28.8079 26.927 27.7384 27.123 26.5081 27.123V29.2865C27.9689 29.2865 29.3174 29.0535 30.537 28.5657L29.7334 26.5568ZM26.5081 27.123C24.9378 27.123 23.6035 26.8116 22.4752 26.2221L21.4734 28.1398C22.9581 28.9154 24.6463 29.2865 26.5081 29.2865V27.123ZM22.4752 26.2221C21.3373 25.6277 20.4752 24.8183 19.8612 23.7893L18.0033 24.898C18.8322 26.2871 19.9982 27.3692 21.4734 28.1398L22.4752 26.2221ZM19.8715 23.807C19.271 22.7562 18.961 21.5596 18.961 20.1901H16.7974C16.7974 21.9017 17.1894 23.4741 17.993 24.8804L19.8715 23.807ZM18.961 20.1901C18.961 18.8371 19.2627 17.6584 19.845 16.6268L17.9609 15.5632C17.1782 16.9497 16.7974 18.501 16.7974 20.1901H18.961ZM19.8422 16.6317C20.4494 15.5692 21.2656 14.7552 22.3013 14.1705L21.2377 12.2864C19.8554 13.0667 18.7606 14.1638 17.9637 15.5583L19.8422 16.6317ZM22.2949 14.1741C23.3476 13.5893 24.5483 13.2865 25.9231 13.2865V11.1229C24.2169 11.1229 22.6485 11.5026 21.2442 12.2828L22.2949 14.1741ZM25.9231 13.2865C27.2209 13.2865 28.3677 13.5703 29.3865 14.1214L30.4159 12.2185C29.0556 11.4826 27.5504 11.1229 25.9231 11.1229V13.2865ZM29.405 14.1312C30.4302 14.6603 31.236 15.4232 31.8361 16.4401L33.6994 15.3404C32.8955 13.9783 31.7903 12.9276 30.3973 12.2087L29.405 14.1312ZM31.8401 16.4468C32.4263 17.4237 32.739 18.5997 32.739 20.0146H34.9026C34.9026 18.2704 34.5133 16.6968 33.6954 15.3337L31.8401 16.4468ZM33.6131 18.9529L21.6496 21.293L22.0649 23.4163L34.0284 21.0763L33.6131 18.9529ZM20.8574 22.7676C21.3168 23.8797 22.0709 24.7506 23.1048 25.3414L24.1783 23.4629C23.5742 23.1177 23.1388 22.6236 22.8571 21.9417L20.8574 22.7676ZM23.1048 25.3414C24.1197 25.9213 25.2982 26.186 26.5959 26.186V24.0224C25.5925 24.0224 24.8015 23.819 24.1783 23.4629L23.1048 25.3414ZM25.9231 14.048C24.3176 14.048 22.9308 14.5832 21.8649 15.6987L23.4292 17.1934C24.0403 16.5538 24.8376 16.2115 25.9231 16.2115V14.048ZM21.8562 15.7079C20.8088 16.8301 20.3367 18.2968 20.3367 19.9853H22.5003C22.5003 18.7098 22.8473 17.8169 23.4379 17.1841L21.8562 15.7079ZM20.3367 19.9853V20.0146H22.5003V19.9853H20.3367ZM21.6225 21.077L30.4562 19.3804L30.0482 17.2557L21.2145 18.9522L21.6225 21.077ZM31.2978 18.0406C30.9829 16.8537 30.3284 15.8749 29.351 15.1418L28.0528 16.8727C28.6354 17.3096 29.0145 17.8714 29.2066 18.5955L31.2978 18.0406ZM29.3615 15.1498C28.3862 14.3996 27.2192 14.048 25.9231 14.048V16.2115C26.8111 16.2115 27.4966 16.4449 28.0423 16.8647L29.3615 15.1498ZM38.6791 26.8885L37.9142 27.6534L37.9225 27.6617L37.931 27.6699L38.6791 26.8885ZM37.3336 6.29606V5.21428H36.2518V6.29606H37.3336ZM40.9899 6.29606H42.0717V5.21428H40.9899V6.29606ZM44.5 24.8994L45.5798 24.8346L45.4817 23.1991L44.0162 23.9319L44.5 24.8994ZM44.6755 27.8245L45.0521 28.8386L45.8033 28.5596L45.7553 27.7597L44.6755 27.8245ZM42.4817 27.123C41.0619 27.123 40.0912 26.7428 39.4272 26.1071L37.931 27.6699C39.1001 28.7892 40.6644 29.2865 42.4817 29.2865V27.123ZM39.444 26.1235C38.8019 25.4814 38.4154 24.5298 38.4154 23.1152H36.2518C36.2518 24.9376 36.7623 26.5015 37.9142 27.6534L39.444 26.1235ZM38.4154 23.1152V6.29606H36.2518V23.1152H38.4154ZM37.3336 7.37785H40.9899V5.21428H37.3336V7.37785ZM39.9081 6.29606V22.8519H42.0717V6.29606H39.9081ZM39.9081 22.8519C39.9081 23.7819 40.1247 24.6808 40.7491 25.3468C41.3859 26.026 42.2672 26.2737 43.1837 26.2737V24.1102C42.6377 24.1102 42.4221 23.9679 42.3276 23.8671C42.2207 23.7531 42.0717 23.4819 42.0717 22.8519H39.9081ZM43.1837 26.2737C43.8191 26.2737 44.4266 26.1456 44.9838 25.867L44.0162 23.9319C43.7933 24.0433 43.5233 24.1102 43.1837 24.1102V26.2737ZM43.4201 24.9642L43.5956 27.8893L45.7553 27.7597L45.5798 24.8346L43.4201 24.9642ZM44.2988 26.8104C43.7452 27.016 43.1423 27.123 42.4817 27.123V29.2865C43.381 29.2865 44.2407 29.14 45.0521 28.8386L44.2988 26.8104ZM58.5453 23.4077L59.3666 22.7036L58.6064 21.8167L57.7803 22.6427L58.5453 23.4077ZM60.4758 25.66L61.3148 26.3429L61.8853 25.642L61.2972 24.9559L60.4758 25.66ZM57.8433 27.5612L57.4415 26.5568L57.8433 27.5612ZM49.6824 27.181L49.1815 28.1398L49.1815 28.1398L49.6824 27.181ZM46.6403 24.3437L45.701 24.8804L45.7061 24.8893L45.7114 24.898L46.6403 24.3437ZM46.611 16.095L45.6718 15.5583L45.669 15.5632L46.611 16.095ZM49.4776 13.2285L48.9522 12.2828L48.9458 12.2864L49.4776 13.2285ZM57.6093 13.17L57.0945 14.1214L57.1038 14.1264L57.1131 14.1312L57.6093 13.17ZM60.4758 15.8903L59.5442 16.4401L59.5482 16.4468L60.4758 15.8903ZM61.5288 20.0146L61.7365 21.0763L62.6106 20.9053V20.0146H61.5288ZM49.5654 22.3546L49.3577 21.293L48.0612 21.5466L48.5655 22.7676L49.5654 22.3546ZM51.3496 24.4022L51.8864 23.4629L51.8864 23.4629L51.3496 24.4022ZM50.3551 16.446L49.5729 15.6986L49.5643 15.7079L50.3551 16.446ZM49.1266 20.0146H48.0448V21.3239L49.3306 21.077L49.1266 20.0146ZM57.9603 18.3181L58.1643 19.3804L59.3033 19.1617L59.0059 18.0406L57.9603 18.3181ZM56.41 16.0073L55.7504 16.8648L55.7609 16.8727L56.41 16.0073ZM54.3039 26.186C56.2681 26.186 57.9631 25.5198 59.3102 24.1726L57.7803 22.6427C56.8655 23.5576 55.7329 24.0224 54.3039 24.0224V26.186ZM57.7239 24.1117L59.6545 26.364L61.2972 24.9559L59.3666 22.7036L57.7239 24.1117ZM59.6368 24.9771C59.0783 25.6632 58.3554 26.1913 57.4415 26.5568L58.245 28.5657C59.4762 28.0732 60.5083 27.3337 61.3148 26.3429L59.6368 24.9771ZM57.4415 26.5568C56.516 26.927 55.4465 27.123 54.2162 27.123V29.2865C55.677 29.2865 57.0255 29.0535 58.245 28.5657L57.4415 26.5568ZM54.2162 27.123C52.6459 27.123 51.3116 26.8116 50.1832 26.2221L49.1815 28.1398C50.6662 28.9154 52.3544 29.2865 54.2162 29.2865V27.123ZM50.1832 26.2221C49.0453 25.6277 48.1833 24.8183 47.5692 23.7893L45.7114 24.898C46.5403 26.2871 47.7063 27.3692 49.1815 28.1398L50.1832 26.2221ZM47.5795 23.807C46.9791 22.7562 46.6691 21.5596 46.6691 20.1901H44.5055C44.5055 21.9017 44.8974 23.4741 45.701 24.8804L47.5795 23.807ZM46.6691 20.1901C46.6691 18.8371 46.9708 17.6584 47.5531 16.6268L45.669 15.5632C44.8863 16.9497 44.5055 18.501 44.5055 20.1901H46.6691ZM47.5503 16.6317C48.1575 15.5692 48.9736 14.7552 50.0094 14.1705L48.9458 12.2864C47.5635 13.0667 46.4686 14.1638 45.6718 15.5583L47.5503 16.6317ZM50.003 14.1741C51.0557 13.5893 52.2564 13.2865 53.6312 13.2865V11.1229C51.9249 11.1229 50.3566 11.5026 48.9522 12.2828L50.003 14.1741ZM53.6312 13.2865C54.929 13.2865 56.0758 13.5703 57.0945 14.1214L58.124 12.2185C56.7637 11.4826 55.2584 11.1229 53.6312 11.1229V13.2865ZM57.1131 14.1312C58.1382 14.6603 58.944 15.4232 59.5442 16.4401L61.4075 15.3404C60.6036 13.9783 59.4983 12.9276 58.1054 12.2087L57.1131 14.1312ZM59.5482 16.4468C60.1343 17.4237 60.4471 18.5997 60.4471 20.0146H62.6106C62.6106 18.2704 62.2213 16.6968 61.4034 15.3337L59.5482 16.4468ZM61.3212 18.9529L49.3577 21.293L49.773 23.4163L61.7365 21.0763L61.3212 18.9529ZM48.5655 22.7676C49.0248 23.8797 49.779 24.7506 50.8129 25.3414L51.8864 23.4629C51.2823 23.1177 50.8469 22.6236 50.5652 21.9417L48.5655 22.7676ZM50.8129 25.3414C51.8278 25.9213 53.0063 26.186 54.3039 26.186V24.0224C53.3005 24.0224 52.5096 23.819 51.8864 23.4629L50.8129 25.3414ZM53.6312 14.048C52.0256 14.048 50.6389 14.5832 49.573 15.6987L51.1372 17.1934C51.7484 16.5538 52.5457 16.2115 53.6312 16.2115V14.048ZM49.5643 15.7079C48.5168 16.8301 48.0448 18.2968 48.0448 19.9853H50.2084C50.2084 18.7098 50.5554 17.8169 51.146 17.1841L49.5643 15.7079ZM48.0448 19.9853V20.0146H50.2084V19.9853H48.0448ZM49.3306 21.077L58.1643 19.3804L57.7562 17.2557L48.9226 18.9522L49.3306 21.077ZM59.0059 18.0406C58.691 16.8537 58.0365 15.8749 57.0591 15.1418L55.7609 16.8727C56.3435 17.3096 56.7226 17.8714 56.9147 18.5955L59.0059 18.0406ZM57.0696 15.1498C56.0943 14.3996 54.9272 14.048 53.6312 14.048V16.2115C54.5192 16.2115 55.2047 16.4449 55.7504 16.8647L57.0696 15.1498ZM77.7657 13.1992L77.239 14.1441L77.2455 14.1477L77.7657 13.1992ZM80.603 16.0073L79.6609 16.5391L79.6609 16.5391L80.603 16.0073ZM80.603 24.4022L81.545 24.934L81.5486 24.9275L80.603 24.4022ZM77.7657 27.2102L77.2455 26.2617L77.239 26.2653L77.7657 27.2102ZM70.7455 27.649L70.3247 28.6456L70.3325 28.6488L70.7455 27.649ZM68.5225 25.9817L69.3607 25.2979L67.4407 22.9443V25.9817H68.5225ZM68.5225 28V29.0818H69.6043V28H68.5225ZM65.0417 28H63.9599V29.0818H65.0417V28ZM65.0417 6.29606V5.21428H63.9599V6.29606H65.0417ZM68.698 6.29606H69.7798V5.21428H68.698V6.29606ZM68.698 14.2815H67.6162V17.0679L69.4964 15.0114L68.698 14.2815ZM70.8918 12.7312L70.4822 11.7299L70.4741 11.7333L70.8918 12.7312ZM76.5956 23.7294L75.8223 22.9729L75.8139 22.9817L76.5956 23.7294ZM76.5956 16.6508L75.8138 17.3986L75.8223 17.4073L76.5956 16.6508ZM70.921 15.9195L71.4464 16.8652L71.4563 16.8596L71.4661 16.8539L70.921 15.9195ZM69.2537 17.616L68.3069 17.0928L68.3069 17.0928L69.2537 17.616ZM70.921 24.4899L70.3759 25.4244L70.3857 25.4301L70.3957 25.4356L70.921 24.4899ZM73.6998 13.2865C75.0585 13.2865 76.2287 13.581 77.239 14.1441L78.2923 12.2543C76.9236 11.4914 75.3832 11.1229 73.6998 11.1229V13.2865ZM77.2455 14.1477C78.2765 14.7131 79.0768 15.5042 79.6609 16.5391L81.545 15.4755C80.7642 14.0922 79.6728 13.0113 78.2858 12.2507L77.2455 14.1477ZM79.6609 16.5391C80.2398 17.5645 80.545 18.7709 80.545 20.1901H82.7085C82.7085 18.4503 82.3311 16.868 81.545 15.4755L79.6609 16.5391ZM80.545 20.1901C80.545 21.609 80.2399 22.8281 79.6573 23.8768L81.5486 24.9275C82.331 23.5192 82.7085 21.9303 82.7085 20.1901H80.545ZM79.6609 23.8704C79.0768 24.9052 78.2765 25.6963 77.2455 26.2617L78.2858 28.1588C79.6728 27.3981 80.7642 26.3172 81.545 24.934L79.6609 23.8704ZM77.239 26.2653C76.2287 26.8284 75.0585 27.123 73.6998 27.123V29.2865C75.3832 29.2865 76.9236 28.918 78.2923 28.1552L77.239 26.2653ZM73.6998 27.123C72.7541 27.123 71.9114 26.9601 71.1585 26.6491L70.3325 28.6488C71.3736 29.0789 72.5005 29.2865 73.6998 29.2865V27.123ZM71.1663 26.6524C70.452 26.3508 69.8541 25.9027 69.3607 25.2979L67.6842 26.6655C68.3998 27.5427 69.284 28.2062 70.3247 28.6456L71.1663 26.6524ZM67.4407 25.9817V28H69.6043V25.9817H67.4407ZM68.5225 26.9182H65.0417V29.0818H68.5225V26.9182ZM66.1234 28V6.29606H63.9599V28H66.1234ZM65.0417 7.37785H68.698V5.21428H65.0417V7.37785ZM67.6162 6.29606V14.2815H69.7798V6.29606H67.6162ZM69.4964 15.0114C70.0163 14.4427 70.6184 14.0184 71.3095 13.7291L70.4741 11.7333C69.4881 12.146 68.6277 12.7552 67.8996 13.5515L69.4964 15.0114ZM71.3014 13.7324C72.0177 13.4394 72.813 13.2865 73.6998 13.2865V11.1229C72.5586 11.1229 71.4819 11.321 70.4822 11.7299L71.3014 13.7324ZM73.2903 26.1567C74.9036 26.1567 76.297 25.6067 77.3774 24.4772L75.8139 22.9817C75.1782 23.6462 74.3681 23.9932 73.2903 23.9932V26.1567ZM77.3689 24.4859C78.4768 23.3534 78.9937 21.885 78.9937 20.1901H76.8301C76.8301 21.4202 76.4695 22.3114 75.8223 22.9729L77.3689 24.4859ZM78.9937 20.1901C78.9937 18.4951 78.4768 17.0268 77.3689 15.8943L75.8223 17.4073C76.4695 18.0688 76.8301 18.96 76.8301 20.1901H78.9937ZM77.3774 15.903C76.297 14.7735 74.9036 14.2235 73.2903 14.2235V16.387C74.3681 16.387 75.1782 16.734 75.8139 17.3985L77.3774 15.903ZM73.2903 14.2235C72.2371 14.2235 71.2565 14.4714 70.3759 14.9851L71.4661 16.8539C71.9896 16.5486 72.5886 16.387 73.2903 16.387V14.2235ZM70.3957 14.9739C69.5065 15.4678 68.809 16.1843 68.3069 17.0928L70.2006 18.1393C70.5175 17.5657 70.9315 17.1512 71.4464 16.8652L70.3957 14.9739ZM68.3069 17.0928C67.7963 18.0169 67.5577 19.0601 67.5577 20.1901H69.7213C69.7213 19.3701 69.8922 18.6973 70.2006 18.1393L68.3069 17.0928ZM67.5577 20.1901C67.5577 21.3201 67.7963 22.3633 68.3069 23.2874L70.2006 22.2409C69.8922 21.6829 69.7213 21.0101 69.7213 20.1901H67.5577ZM68.3069 23.2874C68.8067 24.1917 69.4982 24.9123 70.3759 25.4244L71.4661 23.5555C70.9398 23.2485 70.5198 22.8186 70.2006 22.2409L68.3069 23.2874ZM70.3957 25.4356C71.273 25.923 72.2464 26.1567 73.2903 26.1567V23.9932C72.5792 23.9932 71.9731 23.8369 71.4464 23.5443L70.3957 25.4356ZM88.5751 14.6617H87.4933V18.345L89.4851 15.2467L88.5751 14.6617ZM94.1327 12.2047H95.2145V11.1229H94.1327V12.2047ZM94.1327 15.6855L93.9334 16.7488L95.2145 16.989V15.6855H94.1327ZM89.9499 16.8555L90.7241 17.6112L90.7328 17.602L89.9499 16.8555ZM88.7506 28V29.0818H89.8324V28H88.7506ZM85.0943 28H84.0125V29.0818H85.0943V28ZM85.0943 12.3802V11.2984H84.0125V12.3802H85.0943ZM88.5751 12.3802H89.6569V11.2984H88.5751V12.3802ZM89.4851 15.2467C90.2707 14.0247 91.7013 13.2865 94.1327 13.2865V11.1229C91.2601 11.1229 88.9856 12.0227 87.6651 14.0767L89.4851 15.2467ZM93.051 12.2047V15.6855H95.2145V12.2047H93.051ZM94.3321 14.6222C93.97 14.5544 93.6191 14.516 93.2845 14.516V16.6795C93.4569 16.6795 93.6715 16.6996 93.9334 16.7488L94.3321 14.6222ZM93.2845 14.516C91.6375 14.516 90.2157 15.0091 89.167 16.109L90.7328 17.602C91.2831 17.0249 92.0844 16.6795 93.2845 16.6795V14.516ZM89.1758 16.0999C88.1163 17.1852 87.6688 18.6864 87.6688 20.4241H89.8324C89.8324 19.0418 90.1844 18.1639 90.724 17.6112L89.1758 16.0999ZM87.6688 20.4241V28H89.8324V20.4241H87.6688ZM88.7506 26.9182H85.0943V29.0818H88.7506V26.9182ZM86.1761 28V12.3802H84.0125V28H86.1761ZM85.0943 13.462H88.5751V11.2984H85.0943V13.462ZM87.4933 12.3802V14.6617H89.6569V12.3802H87.4933ZM97.2344 12.3802V11.2984H96.1527V12.3802H97.2344ZM100.891 12.3802H101.973V11.2984H100.891V12.3802ZM100.891 28V29.0818H101.973V28H100.891ZM97.2344 28H96.1527V29.0818H97.2344V28ZM97.4099 9.19187L96.6622 9.97361L96.6713 9.98229L96.6805 9.99075L97.4099 9.19187ZM97.4099 6.06206L98.1394 6.86094L98.1486 6.85248L98.1577 6.8438L97.4099 6.06206ZM100.745 6.03281L100.015 6.83169L100.025 6.84053L100.035 6.84913L100.745 6.03281ZM100.745 9.16262L99.9796 8.39768L99.9796 8.39768L100.745 9.16262ZM97.2344 13.462H100.891V11.2984H97.2344V13.462ZM99.809 12.3802V28H101.973V12.3802H99.809ZM100.891 26.9182H97.2344V29.0818H100.891V26.9182ZM98.3162 28V12.3802H96.1527V28H98.3162ZM99.0772 8.72435C98.6573 8.72435 98.3695 8.60316 98.1394 8.39299L96.6805 9.99075C97.3474 10.5996 98.1712 10.8879 99.0772 10.8879V8.72435ZM98.1577 8.41013C97.9239 8.18645 97.819 7.94292 97.819 7.61234H95.6554C95.6554 8.52978 95.999 9.33928 96.6622 9.97361L98.1577 8.41013ZM97.819 7.61234C97.819 7.28282 97.9222 7.05918 98.1394 6.86094L96.6805 5.26317C96.0006 5.88395 95.6554 6.69383 95.6554 7.61234H97.819ZM98.1577 6.8438C98.3903 6.62135 98.6719 6.50033 99.0772 6.50033V4.33676C98.1565 4.33676 97.3266 4.64475 96.6622 5.28031L98.1577 6.8438ZM99.0772 6.50033C99.4972 6.50033 99.7849 6.62152 100.015 6.83169L101.474 5.23392C100.807 4.62508 99.9833 4.33676 99.0772 4.33676V6.50033ZM100.035 6.84913C100.242 7.02968 100.335 7.22705 100.335 7.52459H102.499C102.499 6.6131 102.144 5.81595 101.454 5.21648L100.035 6.84913ZM100.335 7.52459C100.335 7.88588 100.222 8.15534 99.9796 8.39768L101.509 9.92756C102.164 9.27288 102.499 8.45032 102.499 7.52459H100.335ZM99.9796 8.39768C99.7795 8.59773 99.512 8.72435 99.0772 8.72435V10.8879C100.008 10.8879 100.851 10.5855 101.509 9.92756L99.9796 8.39768ZM121.193 12.3802H122.274V11.2984H121.193V12.3802ZM108.498 33.2944L108.799 32.2553L108.792 32.2533L108.785 32.2514L108.498 33.2944ZM105.163 31.6563L104.234 31.1027L103.758 31.9014L104.476 32.4919L105.163 31.6563ZM106.801 28.9068L107.491 28.0738L106.519 27.2676L105.872 28.3531L106.801 28.9068ZM109.375 30.2523L109.717 29.226L109.706 29.2222L109.375 30.2523ZM116.337 29.6088L115.581 28.8345L115.581 28.8345L116.337 29.6088ZM117.536 25.2212H118.618V22.4348L116.738 24.4912L117.536 25.2212ZM115.255 26.7715L114.86 25.7641L114.86 25.7641L115.255 26.7715ZM108.264 26.362L107.749 27.3134L107.758 27.3184L107.768 27.3233L108.264 26.362ZM105.426 23.6709L104.496 24.2229L104.503 24.2344L105.426 23.6709ZM105.426 15.8025L104.503 15.239L104.5 15.2436L105.426 15.8025ZM108.264 13.1407L107.768 12.1794L107.761 12.1827L108.264 13.1407ZM115.372 12.7604L114.966 13.7634L114.973 13.7663L115.372 12.7604ZM117.712 14.457L116.875 15.1432L118.793 17.4808V14.457H117.712ZM117.712 12.3802V11.2984H116.63V12.3802H117.712ZM116.249 22.9689L116.987 23.7597L116.988 23.7592L116.249 22.9689ZM116.249 16.5338L115.511 17.3247L115.52 17.3327L116.249 16.5338ZM109.405 16.5338L108.675 15.7348L108.666 15.7429L109.405 16.5338ZM109.405 22.9689L108.657 23.751L108.666 23.7595L108.675 23.7678L109.405 22.9689ZM120.111 12.3802V25.6307H122.274V12.3802H120.111ZM120.111 25.6307C120.111 28.2077 119.454 29.943 118.33 31.0443C117.201 32.1496 115.415 32.7976 112.768 32.7976V34.9612C115.737 34.9612 118.164 34.2343 119.843 32.5901C121.527 30.9418 122.274 28.5528 122.274 25.6307H120.111ZM112.768 32.7976C111.361 32.7976 110.04 32.615 108.799 32.2553L108.197 34.3334C109.647 34.7537 111.172 34.9612 112.768 34.9612V32.7976ZM108.785 32.2514C107.553 31.9122 106.587 31.4264 105.85 30.8207L104.476 32.4919C105.494 33.3292 106.751 33.9355 108.211 34.3373L108.785 32.2514ZM106.093 32.21L107.731 29.4604L105.872 28.3531L104.234 31.1027L106.093 32.21ZM106.111 29.7398C106.921 30.4107 107.909 30.9179 109.045 31.2824L109.706 29.2222C108.775 28.9237 108.047 28.5339 107.491 28.0738L106.111 29.7398ZM109.033 31.2786C110.193 31.665 111.371 31.8606 112.564 31.8606V29.697C111.611 29.697 110.664 29.5416 109.717 29.226L109.033 31.2786ZM112.564 31.8606C114.414 31.8606 116.005 31.4437 117.092 30.3831L115.581 28.8345C115.069 29.3339 114.145 29.697 112.564 29.697V31.8606ZM117.092 30.3831C118.177 29.3252 118.618 27.8037 118.618 26.0402H116.454C116.454 27.4748 116.096 28.3323 115.581 28.8345L117.092 30.3831ZM118.618 26.0402V25.2212H116.454V26.0402H118.618ZM116.738 24.4912C116.23 25.0464 115.61 25.4708 114.86 25.7641L115.649 27.7789C116.693 27.3701 117.594 26.761 118.335 25.9511L116.738 24.4912ZM114.86 25.7641C114.103 26.0607 113.253 26.2162 112.3 26.2162V28.3798C113.492 28.3798 114.613 28.1843 115.649 27.7789L114.86 25.7641ZM112.3 26.2162C110.975 26.2162 109.802 25.9386 108.76 25.4007L107.768 27.3233C109.143 28.0334 110.661 28.3798 112.3 28.3798V26.2162ZM108.778 25.4105C107.756 24.8576 106.952 24.0942 106.35 23.1074L104.503 24.2344C105.305 25.5487 106.392 26.5793 107.749 27.3134L108.778 25.4105ZM106.357 23.119C105.784 22.1531 105.484 21.0314 105.484 19.7221H103.321C103.321 21.3768 103.704 22.8877 104.496 24.2228L106.357 23.119ZM105.484 19.7221C105.484 18.4124 105.784 17.3039 106.353 16.3614L104.5 15.2436C103.704 16.5632 103.321 18.0677 103.321 19.7221H105.484ZM106.35 16.366C106.95 15.382 107.751 14.6314 108.766 14.0987L107.761 12.1827C106.398 12.898 105.307 13.9219 104.503 15.239L106.35 16.366ZM108.76 14.102C109.802 13.5641 110.975 13.2865 112.3 13.2865V11.1229C110.661 11.1229 109.143 11.4693 107.768 12.1794L108.76 14.102ZM112.3 13.2865C113.312 13.2865 114.196 13.4519 114.966 13.7634L115.777 11.7575C114.715 11.328 113.55 11.1229 112.3 11.1229V13.2865ZM114.973 13.7663C115.743 14.0708 116.371 14.5281 116.875 15.1432L118.548 13.7708C117.805 12.8648 116.872 12.1911 115.77 11.7546L114.973 13.7663ZM118.793 14.457V12.3802H116.63V14.457H118.793ZM117.712 13.462H121.193V11.2984H117.712V13.462ZM112.856 25.2792C114.47 25.2792 115.879 24.7944 116.987 23.7597L115.511 22.1781C114.865 22.7815 114.012 23.1156 112.856 23.1156V25.2792ZM116.988 23.7592C118.123 22.6985 118.676 21.3209 118.676 19.7221H116.513C116.513 20.7753 116.17 21.5622 115.51 22.1786L116.988 23.7592ZM118.676 19.7221C118.676 18.1374 118.118 16.7756 116.979 15.7349L115.52 17.3327C116.174 17.9299 116.513 18.6937 116.513 19.7221H118.676ZM116.987 15.7429C115.879 14.7083 114.47 14.2235 112.856 14.2235V16.387C114.012 16.387 114.865 16.7212 115.511 17.3246L116.987 15.7429ZM112.856 14.2235C111.227 14.2235 109.802 14.7057 108.675 15.7349L110.134 17.3327C110.801 16.7238 111.677 16.387 112.856 16.387V14.2235ZM108.666 15.7429C107.549 16.7859 107.006 18.1453 107.006 19.7221H109.17C109.17 18.6859 109.505 17.9197 110.143 17.3246L108.666 15.7429ZM107.006 19.7221C107.006 21.3132 107.545 22.6884 108.657 23.751L110.152 22.1868C109.509 21.5724 109.17 20.783 109.17 19.7221H107.006ZM108.675 23.7678C109.802 24.797 111.227 25.2792 112.856 25.2792V23.1156C111.677 23.1156 110.801 22.7788 110.134 22.17L108.675 23.7678ZM139.601 13.9305L140.353 13.1529L140.353 13.1529L139.601 13.9305ZM141.385 28V29.0818H142.467V28H141.385ZM137.729 28H136.647V29.0818H137.729V28ZM136.764 16.446L135.966 17.177L135.971 17.1826L135.977 17.1881L136.764 16.446ZM130.826 16.6215L131.6 17.377L131.609 17.3676L130.826 16.6215ZM129.656 28V29.0818H130.738V28H129.656ZM125.999 28H124.918V29.0818H125.999V28ZM125.999 6.29606V5.21428H124.918V6.29606H125.999ZM129.656 6.29606H130.738V5.21428H129.656V6.29606ZM129.656 14.1937H128.574V16.9253L130.444 14.9344L129.656 14.1937ZM131.879 12.7312L132.261 13.7432L132.273 13.7386L131.879 12.7312ZM134.862 13.2865C136.608 13.2865 137.899 13.789 138.849 14.708L140.353 13.1529C138.924 11.7709 137.056 11.1229 134.862 11.1229V13.2865ZM138.849 14.708C139.76 15.5889 140.303 16.9697 140.303 19.0493H142.467C142.467 16.6048 141.821 14.5731 140.353 13.1529L138.849 14.708ZM140.303 19.0493V28H142.467V19.0493H140.303ZM141.385 26.9182H137.729V29.0818H141.385V26.9182ZM138.811 28V19.5173H136.647V28H138.811ZM138.811 19.5173C138.811 18.0009 138.454 16.6624 137.551 15.7039L135.977 17.1881C136.36 17.5947 136.647 18.3037 136.647 19.5173H138.811ZM137.561 15.715C136.664 14.7361 135.426 14.3112 134.014 14.3112V16.4748C134.981 16.4748 135.577 16.7519 135.966 17.177L137.561 15.715ZM134.014 14.3112C132.433 14.3112 131.065 14.8017 130.042 15.8755L131.609 17.3676C132.147 16.8033 132.904 16.4748 134.014 16.4748V14.3112ZM130.051 15.8661C129.012 16.9317 128.574 18.4033 128.574 20.1023H130.738C130.738 18.7593 131.08 17.9104 131.6 17.377L130.051 15.8661ZM128.574 20.1023V28H130.738V20.1023H128.574ZM129.656 26.9182H125.999V29.0818H129.656V26.9182ZM127.081 28V6.29606H124.918V28H127.081ZM125.999 7.37785H129.656V5.21428H125.999V7.37785ZM128.574 6.29606V14.1937H130.738V6.29606H128.574ZM130.444 14.9344C130.929 14.4186 131.528 14.0201 132.261 13.7432L131.496 11.7192C130.475 12.1053 129.592 12.6819 128.867 13.453L130.444 14.9344ZM132.273 13.7386C133.029 13.4429 133.887 13.2865 134.862 13.2865V11.1229C133.653 11.1229 132.523 11.3175 131.485 11.7238L132.273 13.7386ZM154.799 27.1517L155.484 27.989L156.094 27.4897L155.805 26.7558L154.799 27.1517ZM153.219 27.9415L152.926 26.9001L152.918 26.9026L153.219 27.9415ZM147.311 26.8592L146.562 27.6403L146.562 27.6403L147.311 26.8592ZM145.907 8.92862V7.84683H144.825V8.92862H145.907ZM149.563 8.92862H150.645V7.84683H149.563V8.92862ZM149.563 12.4972H148.481V13.579H149.563V12.4972ZM153.746 12.4972H154.827V11.4154H153.746V12.4972ZM153.746 15.4222V16.504H154.827V15.4222H153.746ZM149.563 15.4222V14.3405H148.481V15.4222H149.563ZM150.119 24.6069L149.316 25.3327L149.335 25.3528L149.354 25.3719L150.119 24.6069ZM153.775 24.5484L154.782 24.1525L154.25 22.7997L153.107 23.6978L153.775 24.5484ZM154.114 26.3145C153.818 26.5566 153.431 26.7582 152.926 26.9001L153.512 28.9829C154.255 28.7738 154.922 28.4489 155.484 27.989L154.114 26.3145ZM152.918 26.9026C152.419 27.0474 151.878 27.123 151.289 27.123V29.2865C152.065 29.2865 152.81 29.1866 153.521 28.9804L152.918 26.9026ZM151.289 27.123C149.759 27.123 148.735 26.7263 148.059 26.0782L146.562 27.6403C147.758 28.7862 149.387 29.2865 151.289 29.2865V27.123ZM148.059 26.0782C147.398 25.4451 146.988 24.4603 146.988 22.9396H144.825C144.825 24.8511 145.351 26.4793 146.562 27.6403L148.059 26.0782ZM146.988 22.9396V8.92862H144.825V22.9396H146.988ZM145.907 10.0104H149.563V7.84683H145.907V10.0104ZM148.481 8.92862V12.4972H150.645V8.92862H148.481ZM149.563 13.579H153.746V11.4154H149.563V13.579ZM152.664 12.4972V15.4222H154.827V12.4972H152.664ZM153.746 14.3405H149.563V16.504H153.746V14.3405ZM148.481 15.4222V22.8519H150.645V15.4222H148.481ZM148.481 22.8519C148.481 23.7789 148.708 24.6599 149.316 25.3327L150.921 23.8811C150.788 23.7349 150.645 23.446 150.645 22.8519H148.481ZM149.354 25.3719C149.992 26.0107 150.83 26.2737 151.727 26.2737V24.1102C151.26 24.1102 151.025 23.9832 150.884 23.842L149.354 25.3719ZM151.727 26.2737C152.744 26.2737 153.674 26.0036 154.443 25.3991L153.107 23.6978C152.784 23.9513 152.349 24.1102 151.727 24.1102V26.2737ZM152.768 24.9443L153.792 27.5476L155.805 26.7558L154.782 24.1525L152.768 24.9443Z" fill="url(#paint1_linear_706_17917)" mask="url(#path-1-inside-1_706_17917)"/>
<path fill-rule="evenodd" clip-rule="evenodd" d="M17.0414 0.481109C16.8077 -0.16037 15.901 -0.16037 15.6673 0.481109L14.607 3.39605L11.692 4.45637C11.0506 4.69003 11.0506 5.59677 11.692 5.83044L14.607 6.89075L15.6673 9.8057C15.901 10.4472 16.8077 10.4472 17.0414 9.8057L18.1017 6.89075L21.0166 5.83044C21.6581 5.59677 21.6581 4.69003 21.0166 4.45637L18.1017 3.39605L17.0414 0.481109Z" fill="url(#paint2_linear_706_17917)"/>
<defs>
<linearGradient id="paint0_linear_706_17917" x1="78" y1="12.1765" x2="78" y2="36" gradientUnits="userSpaceOnUse">
<stop stop-color="#9252E7"/>
<stop offset="1" stop-color="#FF3CE5"/>
</linearGradient>
<linearGradient id="paint1_linear_706_17917" x1="78" y1="12.1765" x2="78" y2="36" gradientUnits="userSpaceOnUse">
<stop stop-color="#9252E7"/>
<stop offset="1" stop-color="#FF3CE5"/>
</linearGradient>
<linearGradient id="paint2_linear_706_17917" x1="16.3543" y1="3.47936" x2="16.3543" y2="10.2868" gradientUnits="userSpaceOnUse">
<stop stop-color="#9252E7"/>
<stop offset="1" stop-color="#FF3CE5"/>
</linearGradient>
</defs>
</svg>
