<svg width="14" height="14" viewBox="0 0 14 14" fill="none" xmlns="http://www.w3.org/2000/svg">
<path d="M6.99834 0.798321C7.09864 0.525356 7.4847 0.525357 7.58499 0.798322L8.75237 3.97547C9.06865 4.83626 9.74707 5.51468 10.6079 5.83096L13.785 6.99834C14.058 7.09864 14.058 7.4847 13.785 7.58499L10.6079 8.75237C9.74707 9.06865 9.06865 9.74707 8.75237 10.6079L7.58499 13.785C7.4847 14.058 7.09863 14.058 6.99834 13.785L5.83096 10.6079C5.51468 9.74707 4.83626 9.06865 3.97547 8.75237L0.798321 7.58499C0.525356 7.4847 0.525357 7.09863 0.798322 6.99834L3.97547 5.83096C4.83626 5.51468 5.51468 4.83626 5.83096 3.97547L6.99834 0.798321Z" fill="url(#paint0_linear_2053_31059)"/>
<defs>
<linearGradient id="paint0_linear_2053_31059" x1="-0.303819" y1="13.6995" x2="15.4604" y2="12.6024" gradientUnits="userSpaceOnUse">
<stop stop-color="#FBC7D4"/>
<stop offset="0.54" stop-color="#C5ADE3"/>
<stop offset="1" stop-color="#9796F0"/>
</linearGradient>
</defs>
</svg>
